<svg width='50' height='50' fill="none" xmlns="http://www.w3.org/2000/svg">
<path d="M0.913757 0.495117H3.51532C3.51532 0.495117 3.51532 1.72739 4.15927 2.31786H3.64411C3.64411 2.31786 2.81985 1.39365 0.913757 1.39365V0.495117Z" fill="#231F20"/>
<path d="M12.7624 0.495117H10.1609C10.1609 0.495117 10.1609 1.72739 9.51691 2.31786H10.0321C10.0321 2.31786 10.8563 1.39365 12.7624 1.39365V0.495117Z" fill="#231F20"/>
<path d="M9.25937 0.495117H4.5199V1.23962H9.25937V0.495117Z" fill="#231F20"/>
<path d="M4.5199 1.62469H9.28513L8.6927 2.29218H5.18961L4.5199 1.62469Z" fill="#231F20"/>
<path d="M4.72593 27.8105C4.72593 28.2726 4.54562 28.632 4.33956 28.632C4.13349 28.632 3.95319 28.2726 3.95319 27.8105V3.72984C3.95319 3.26774 4.13349 2.90833 4.33956 2.90833C4.54562 2.90833 4.72593 3.26774 4.72593 3.72984V27.8105Z" fill="#231F20"/>
<path d="M6.34867 27.8105C6.34867 28.2726 6.16836 28.632 5.9623 28.632C5.75623 28.632 5.57593 28.2726 5.57593 27.8105V3.72984C5.57593 3.26774 5.75623 2.90833 5.9623 2.90833C6.16836 2.90833 6.34867 3.26774 6.34867 3.72984V27.8105Z" fill="#231F20"/>
<path d="M8.04874 27.8105C8.04874 28.2726 7.86844 28.632 7.66237 28.632C7.45631 28.632 7.276 28.2726 7.276 27.8105V3.72984C7.276 3.26774 7.45631 2.90833 7.66237 2.90833C7.86844 2.90833 8.04874 3.26774 8.04874 3.72984V27.8105Z" fill="#231F20"/>
<path d="M9.80027 27.8105C9.80027 28.2726 9.61996 28.632 9.4139 28.632C9.20783 28.632 9.02753 28.2726 9.02753 27.8105V3.72984C9.02753 3.26774 9.20783 2.90833 9.4139 2.90833C9.61996 2.90833 9.80027 3.26774 9.80027 3.72984V27.8105Z" fill="#231F20"/>
<path d="M0.991028 31.0966H3.59259C3.59259 31.0966 3.59259 29.8643 4.23654 29.2738H3.72138C3.72138 29.2738 2.89712 30.1981 0.991028 30.1981V31.0966Z" fill="#231F20"/>
<path d="M9.33664 30.3521H4.59717V31.0966H9.33664V30.3521Z" fill="#231F20"/>
<path d="M4.59717 29.967H9.33664L8.76997 29.2738H5.24112L4.59717 29.967Z" fill="#231F20"/>
<path d="M24.8687 21.6235C24.8687 21.6235 23.3748 26.1932 20.3353 28.401C17.3216 30.6088 12.814 30.2237 12.814 30.2237C10.9079 30.2237 10.0836 29.2995 10.0836 29.2995H9.56848C10.2124 29.89 10.2124 31.1222 10.2124 31.1222H23.6066C23.5808 30.4034 25.796 21.6491 25.796 21.6491H24.8687V21.6235Z" fill="#231F20"/>
<path d="M36.6643 42H0.5V4.31296L0.963645 4.08191C6.39859 1.41198 12.5032 0 18.5821 0C24.661 0 30.7399 1.41198 36.2006 4.08191L36.6643 4.31296V42ZM2.12276 40.3826H35.0157V5.31418C29.8899 2.90098 24.2231 1.61736 18.5564 1.61736C12.8896 1.61736 7.22284 2.90098 2.097 5.31418V40.3826H2.12276Z" fill="#010101"/>
<path d="M35.0203 41.2042C23.5065 41.2042 11.9927 41.2042 0.478821 41.2042C0.478821 29.0868 0.478821 16.9438 0.478821 4.82641C11.3745 -0.487771 24.1247 -0.487771 35.0203 4.82641C35.0203 16.9438 35.0203 29.0611 35.0203 41.2042Z" fill="#E9AC22"/>
</svg>
