<svg width="150" height="36" viewBox="0 0 150 36" fill="none" xmlns="http://www.w3.org/2000/svg">
<path d="M92.5964 25.8557L35.4357 24.7995L92.5964 23.7433L149.757 24.7995L92.5964 25.8557Z" fill="#010101"/>
<path d="M30.446 35.3178C20.577 35.3178 10.708 35.3178 0.838989 35.3178C0.838989 24.9315 0.838989 14.5232 0.838989 4.13692C10.1781 -0.418096 21.1069 -0.418096 30.446 4.13692C30.446 14.5232 30.446 24.9095 30.446 35.3178Z" fill="#E9AC22"/>
<path d="M30.9979 36H0V3.69682L0.39741 3.49878C5.05593 1.21027 10.2885 0 15.499 0C20.7094 0 25.9199 1.21027 30.6005 3.49878L30.9979 3.69682V36ZM1.39093 34.6137H29.5849V4.55501C25.1913 2.48655 20.3341 1.38631 15.4769 1.38631C10.6197 1.38631 5.76244 2.48655 1.36885 4.55501V34.6137H1.39093Z" fill="#010101"/>
<path d="M5.49756 5.56723H7.72747C7.72747 5.56723 7.72747 6.62347 8.27942 7.12958H7.83786C7.83786 7.12958 7.13135 6.3374 5.49756 6.3374V5.56723Z" fill="#231F20"/>
<path d="M15.6536 5.56723H13.4237C13.4237 5.56723 13.4237 6.62347 12.8717 7.12958H13.3133C13.3133 7.12958 14.0198 6.3374 15.6536 6.3374V5.56723Z" fill="#231F20"/>
<path d="M12.6509 5.56723H8.5885V6.20537H12.6509V5.56723Z" fill="#231F20"/>
<path d="M8.5885 6.53545H12.673L12.1652 7.10757H9.16254L8.5885 6.53545Z" fill="#231F20"/>
<path d="M8.76513 28.9804C8.76513 29.3765 8.61058 29.6846 8.43396 29.6846C8.25733 29.6846 8.10278 29.3765 8.10278 28.9804V8.33985C8.10278 7.94377 8.25733 7.6357 8.43396 7.6357C8.61058 7.6357 8.76513 7.94377 8.76513 8.33985V28.9804Z" fill="#231F20"/>
<path d="M10.1561 28.9804C10.1561 29.3765 10.0016 29.6846 9.82495 29.6846C9.64832 29.6846 9.49377 29.3765 9.49377 28.9804V8.33985C9.49377 7.94377 9.64832 7.6357 9.82495 7.6357C10.0016 7.6357 10.1561 7.94377 10.1561 8.33985V28.9804Z" fill="#231F20"/>
<path d="M11.6133 28.9804C11.6133 29.3765 11.4587 29.6846 11.2821 29.6846C11.1055 29.6846 10.9509 29.3765 10.9509 28.9804V8.33985C10.9509 7.94377 11.1055 7.6357 11.2821 7.6357C11.4587 7.6357 11.6133 7.94377 11.6133 8.33985V28.9804Z" fill="#231F20"/>
<path d="M13.1146 28.9804C13.1146 29.3765 12.9601 29.6846 12.7834 29.6846C12.6068 29.6846 12.4523 29.3765 12.4523 28.9804V8.33985C12.4523 7.94377 12.6068 7.6357 12.7834 7.6357C12.9601 7.6357 13.1146 7.94377 13.1146 8.33985V28.9804Z" fill="#231F20"/>
<path d="M5.56384 31.7971H7.79375C7.79375 31.7971 7.79375 30.7408 8.34571 30.2347H7.90414C7.90414 30.2347 7.19764 31.0269 5.56384 31.0269V31.7971Z" fill="#231F20"/>
<path d="M12.7172 31.1589H8.65479V31.7971H12.7172V31.1589Z" fill="#231F20"/>
<path d="M8.65479 30.8288H12.7172L12.2315 30.2347H9.20674L8.65479 30.8288Z" fill="#231F20"/>
<path d="M26.0304 23.6773C26.0304 23.6773 24.7499 27.5941 22.1446 29.4866C19.5615 31.379 15.6978 31.0489 15.6978 31.0489C14.064 31.0489 13.3575 30.2567 13.3575 30.2567H12.9159C13.4679 30.7628 13.4679 31.8191 13.4679 31.8191H24.9486C24.9265 31.2029 26.8252 23.6993 26.8252 23.6993H26.0304V23.6773Z" fill="#231F20"/>
<path d="M39.741 18.4841C39.741 18.9462 39.9397 19.0342 40.2267 19.0342H41.5956C43.3618 19.0342 44.8411 18.5721 45.7242 16.2836H46.2983C45.9008 17.5159 45.5918 18.8142 45.3489 20.0905C44.0021 20.0024 42.6774 20.0024 40.5358 20.0024C38.7475 20.0024 36.9371 20.0024 35.1929 20.0905V19.5183C36.5176 19.4303 36.5176 19.1222 36.5176 18.044V8.5599C36.5176 7.48166 36.5176 7.19559 35.1929 7.08557V6.51344C36.1643 6.60146 37.1358 6.60146 38.1293 6.60146C39.1007 6.60146 40.0722 6.60146 41.0657 6.51344V7.08557C39.741 7.17359 39.741 7.48166 39.741 8.5599V18.4841Z" fill="#010101"/>
<path d="M50.3164 16.0856L49.5878 17.934C49.4333 18.3301 49.2567 18.7922 49.2567 18.9462C49.2567 19.1663 49.2787 19.3863 50.2281 19.5183V20.0905C49.632 20.0024 49.0138 20.0024 48.4177 20.0024C47.8436 20.0024 47.3138 20.0024 46.7177 20.0905V19.5183C47.5787 19.4083 47.7553 19.3203 48.0865 18.5501L53.1645 6.3154H54.0256L58.9049 18.022C59.3685 19.1002 59.6776 19.5183 60.4945 19.5183V20.0905C59.5231 20.0024 58.5737 20.0024 57.6023 20.0024C56.675 20.0024 55.7477 20.0024 54.8204 20.0905V19.5183C55.5931 19.3863 55.7918 19.2763 55.7918 18.9242C55.7918 18.6381 55.6152 18.2861 55.4607 17.89L54.7321 16.0856H50.3164ZM52.5905 10.2983L50.6917 15.1394H54.3788L52.5905 10.2983Z" fill="#010101"/>
<path d="M62.7024 8.44987C62.0621 7.61369 61.6206 7.08557 60.9141 7.08557V6.51344C61.6206 6.60146 62.305 6.60146 63.0115 6.60146C63.718 6.60146 64.4024 6.60146 65.1089 6.51344L72.1298 15.4914H72.174V8.5599C72.174 7.48166 72.174 7.19559 70.8493 7.08557V6.51344C71.4896 6.60146 72.1298 6.60146 72.7701 6.60146C73.3883 6.60146 74.0286 6.60146 74.6688 6.51344V7.08557C73.3441 7.17359 73.3441 7.48166 73.3441 8.5599V20.3105H72.1078L63.8946 9.88019H63.8505V18.044C63.8505 19.1222 63.8505 19.4083 65.1752 19.5183V20.0905C64.557 20.0024 63.9167 20.0024 63.2764 20.0024C62.6362 20.0024 61.9959 20.0024 61.3556 20.0905V19.5183C62.6803 19.4303 62.6803 19.1222 62.6803 18.044V8.44987H62.7024Z" fill="#010101"/>
<path d="M77.2961 8.5599C77.2961 7.48166 77.2961 7.19559 75.9714 7.08557V6.51344C77.2961 6.60146 78.3559 6.60146 79.5702 6.60146C80.7403 6.60146 82.065 6.51344 83.0365 6.51344C87.1651 6.51344 90.0574 8.5599 90.0574 12.9169C90.0574 17.5379 86.856 20.0685 82.5287 20.0685C81.4689 20.0685 80.3871 19.9804 79.6364 19.9804C78.4442 19.9804 77.252 19.9804 75.9714 20.0685V19.5183C77.2961 19.4303 77.2961 19.1222 77.2961 18.044V8.5599ZM80.5196 17.868C80.5196 18.4841 80.5196 19.0122 81.7339 19.0122C85.3989 19.0122 86.7015 16.5917 86.7015 13.357C86.7015 9.99022 85.2222 7.45965 81.3365 7.45965C81.0494 7.45965 80.5196 7.45965 80.5196 7.81173V17.868Z" fill="#010101"/>
<path d="M99.0432 15.8215L102.598 6.51344C103.304 6.60146 104.011 6.60146 104.761 6.60146C105.49 6.60146 106.175 6.60146 106.903 6.51344V7.08557C105.755 7.10757 105.711 7.08557 105.711 9.50611C105.711 11.6406 105.777 13.7531 105.821 15.4254C105.888 17.0978 105.932 18.3521 105.932 18.7482C105.932 19.3863 106.528 19.4303 107.212 19.4963V20.0685C106.241 19.9804 105.291 19.9804 104.32 19.9804C103.371 19.9804 102.421 19.9804 101.472 20.0685V19.5183C102.333 19.4963 102.708 19.3423 102.708 18.5501V9.04401H102.664L98.4913 19.9804H97.5198L93.4795 9.04401H93.4353V18.22C93.4353 19.3863 93.4574 19.3203 94.6717 19.4963V20.0685C94.0535 19.9804 93.4133 19.9804 92.773 19.9804C92.1327 19.9804 91.4924 19.9804 90.8522 20.0685V19.5183C92.0444 19.4523 92.1548 19.1443 92.1769 18.5061C92.2431 16.7897 92.3093 15.0513 92.3535 13.357C92.3977 11.6406 92.4197 9.9022 92.4197 8.20782C92.4197 7.19559 92.3314 7.2396 91.4041 7.10757H91.2054V6.53545C91.934 6.62347 92.6847 6.62347 93.4133 6.62347C94.1639 6.62347 94.9146 6.62347 95.6432 6.53545L99.0432 15.8215Z" fill="#010101"/>
<path d="M111.65 16.0856L110.921 17.934C110.767 18.3301 110.59 18.7922 110.59 18.9462C110.59 19.1663 110.612 19.3863 111.562 19.5183V20.0905C110.966 20.0024 110.347 20.0024 109.751 20.0024C109.177 20.0024 108.647 20.0024 108.051 20.0905V19.5183C108.912 19.4083 109.089 19.3203 109.42 18.5501L114.498 6.3154H115.359L120.238 18.022C120.702 19.1002 121.011 19.5183 121.828 19.5183V20.0905C120.857 20.0024 119.907 20.0024 118.936 20.0024C118.009 20.0024 117.081 20.0024 116.154 20.0905V19.5183C116.927 19.3863 117.125 19.2763 117.125 18.9242C117.125 18.6381 116.949 18.2861 116.794 17.89L116.066 16.0856H111.65ZM113.924 10.2983L112.025 15.1394H115.712L113.924 10.2983Z" fill="#010101"/>
<path d="M127.215 18.044C127.215 19.1222 127.215 19.4083 128.54 19.5183V20.0905C127.568 20.0024 126.575 20.0024 125.581 20.0024C124.61 20.0024 123.661 20.0024 122.667 20.0905V19.5183C123.992 19.4303 123.992 19.1222 123.992 18.044V8.5599C123.992 7.48166 123.992 7.19559 122.667 7.08557V6.51344C123.793 6.60146 124.632 6.60146 125.626 6.60146C126.575 6.60146 127.789 6.51344 129.07 6.51344C132.139 6.51344 133.684 7.6797 133.684 10.0562C133.684 12.2127 132.271 13.577 130.174 13.7751V13.8191C131.035 13.9511 131.476 14.6993 131.94 15.3594L133.949 18.2861C134.369 18.8802 134.788 19.4963 135.737 19.4963V20.0685C135.053 19.9804 134.369 19.9804 133.706 19.9804C133.022 19.9804 132.337 19.9804 131.609 20.0685L128.915 15.7775C128.076 14.4352 127.833 14.3472 127.215 14.3472V18.044ZM127.215 13.555C129.202 13.555 130.306 12.8949 130.306 10.6284C130.306 8.77995 129.666 7.43765 127.789 7.43765C127.259 7.43765 127.193 7.50366 127.193 7.85574V13.555H127.215Z" fill="#010101"/>
<path d="M137.614 8.5599C137.614 7.48166 137.614 7.19559 136.289 7.08557V6.51344C137.261 6.60146 138.232 6.60146 139.226 6.60146C140.197 6.60146 141.169 6.60146 142.162 6.51344V7.08557C140.838 7.17359 140.838 7.48166 140.838 8.5599V18.044C140.838 19.1222 140.838 19.4083 142.162 19.5183V20.0905C141.191 20.0024 140.197 20.0024 139.204 20.0024C138.232 20.0024 137.283 20.0024 136.289 20.0905V19.5183C137.614 19.4303 137.614 19.1222 137.614 18.044V8.5599ZM147.881 17.802C148.984 19.1663 149.36 19.4963 150 19.5183V20.0905C149.029 20.0024 148.057 20.0024 147.086 20.0024C146.158 20.0024 145.209 20.0024 144.282 20.0905V19.5183C144.635 19.4743 144.988 19.4743 144.988 19.1663C144.988 18.8802 144.547 18.3961 143.796 17.3839L140.948 13.489L144.48 9.06601C144.988 8.42787 145.209 8.03178 145.209 7.56968C145.209 7.10757 144.414 7.10757 144.127 7.10757V6.53545C144.944 6.60146 145.761 6.62347 146.6 6.62347C147.439 6.62347 148.145 6.60146 148.94 6.53545V7.10757C147.66 7.41564 146.777 8.31784 145.474 9.66014L143.156 12.0807L147.881 17.802Z" fill="#010101"/>
<path d="M35.9655 31.0709C35.9655 30.7408 35.9655 30.6528 35.5681 30.6308V30.4548C35.8551 30.4768 36.1642 30.4768 36.4512 30.4768C36.7383 30.4768 37.0474 30.4768 37.3344 30.4548V30.6308C36.937 30.6528 36.937 30.7408 36.937 31.0709V32.3252H38.6149V31.0709C38.6149 30.7408 38.6149 30.6528 38.2175 30.6308V30.4548C38.5266 30.4768 38.8136 30.4768 39.1006 30.4768C39.3877 30.4768 39.6968 30.4768 39.9838 30.4548V30.6308C39.5864 30.6528 39.5864 30.7408 39.5864 31.0709V33.9535C39.5864 34.2836 39.5864 34.3716 39.9838 34.3936V34.5697C39.6968 34.5477 39.3877 34.5477 39.1006 34.5477C38.7915 34.5477 38.4825 34.5477 38.1954 34.5697V34.3936C38.5928 34.3716 38.5928 34.2836 38.5928 33.9535V32.6332H36.959V33.9535C36.959 34.2836 36.959 34.3716 37.3565 34.3936V34.5697C37.0694 34.5477 36.7603 34.5477 36.4512 34.5477C36.1642 34.5477 35.8772 34.5477 35.5681 34.5697V34.3936C35.9655 34.3716 35.9655 34.2836 35.9655 33.9535V31.0709Z" fill="#010101"/>
<path d="M45.2605 34.6357C43.9137 34.6357 43.141 33.7775 43.141 32.5012C43.141 31.2469 44.1124 30.3887 45.3488 30.3887C46.6294 30.3887 47.4683 31.357 47.4683 32.5232C47.4904 33.7775 46.519 34.6357 45.2605 34.6357ZM45.2605 30.7188C44.841 30.7188 44.1787 31.0049 44.1787 32.2592C44.1787 33.3594 44.7306 34.2176 45.4151 34.2176C45.8345 34.2176 46.4969 33.9315 46.4969 32.6773C46.4969 31.9291 46.2982 30.7188 45.2605 30.7188Z" fill="#010101"/>
<path d="M53.1204 33.2934L54.2022 30.4768C54.423 30.4988 54.6217 30.4988 54.8646 30.4988C55.0853 30.4988 55.284 30.4988 55.5048 30.4768V30.6528C55.1516 30.6528 55.1516 30.6528 55.1516 31.379C55.1516 32.0171 55.1737 32.6773 55.1957 33.1834C55.2178 33.6895 55.2399 34.0636 55.2399 34.1956C55.2399 34.3936 55.4165 34.3936 55.6373 34.4157V34.5917C55.3503 34.5697 55.0633 34.5697 54.7542 34.5697C54.4671 34.5697 54.1801 34.5697 53.8931 34.5917V34.4157C54.1581 34.4157 54.2684 34.3716 54.2684 34.1296V31.2469H54.2464L52.9879 34.5697H52.7009L51.4645 31.2469H51.4424V34.0416C51.4424 34.3936 51.4424 34.3716 51.8177 34.4377V34.6137C51.619 34.5917 51.4424 34.5917 51.2437 34.5917C51.045 34.5917 50.8463 34.5917 50.6697 34.6137V34.4377C51.0229 34.4157 51.0671 34.3276 51.0671 34.1296C51.0892 33.6015 51.1112 33.0954 51.1112 32.5672C51.1333 32.0391 51.1333 31.533 51.1333 31.0049C51.1333 30.6968 51.1112 30.7188 50.8242 30.6748H50.758V30.4988C50.9788 30.5208 51.1996 30.5208 51.4203 30.5208C51.6411 30.5208 51.884 30.5208 52.1048 30.4988L53.1204 33.2934Z" fill="#010101"/>
<path d="M59.1036 31.0709C59.1036 30.7408 59.1036 30.6528 58.7062 30.6308V30.4548C59.214 30.4768 59.7218 30.4768 60.2296 30.4768C60.7374 30.4768 61.2231 30.4768 61.7088 30.4548C61.7309 30.7848 61.7309 31.0929 61.7751 31.423H61.6426C61.466 30.7628 60.9361 30.7628 60.4504 30.7628C60.1854 30.7628 60.1192 30.7628 60.1192 30.8729V32.3032H60.4724C60.8478 32.3032 61.201 32.2592 61.2231 31.7751H61.3556C61.3335 31.9951 61.3335 32.2372 61.3335 32.4572C61.3335 32.6773 61.3335 32.9193 61.3556 33.1394H61.2231C61.201 32.6552 60.8478 32.6112 60.4724 32.6112H60.1192V34.0856C60.1192 34.2396 60.1413 34.2396 60.2517 34.2396H60.7595C61.201 34.2396 61.6867 34.1516 61.9296 33.4914H62.1062C62.0179 33.8435 61.9296 34.1956 61.8634 34.5477C61.3335 34.5257 60.8036 34.5257 60.2737 34.5257C59.7439 34.5257 59.2361 34.5257 58.7283 34.5477V34.3716C59.1257 34.3496 59.1257 34.2616 59.1257 33.9315V31.0709H59.1036Z" fill="#010101"/>
<path d="M67.7142 31.533C67.5596 31.0709 67.2505 30.7188 66.7207 30.7188C66.4116 30.7188 66.1245 30.9169 66.1245 31.2249C66.1245 32.0171 68.1778 31.9731 68.1778 33.3814C68.1778 34.2396 67.4713 34.6577 66.6765 34.6577C66.2129 34.6577 65.8155 34.4156 65.3518 34.4156C65.3518 34.2176 65.3739 34.0416 65.3739 33.8435C65.3739 33.6235 65.3518 33.3814 65.3518 33.1614H65.5064C65.7271 33.7995 66.0583 34.2836 66.6986 34.2836C67.0518 34.2836 67.4051 34.1076 67.4051 33.7115C67.4051 32.7873 65.3518 32.8973 65.3518 31.511C65.3518 30.8068 65.9921 30.4328 66.6323 30.4328C67.096 30.4328 67.2285 30.5428 67.5155 30.5428C67.6479 30.5428 67.7363 30.5208 67.8246 30.5208C67.8246 30.6968 67.8025 30.8728 67.8025 31.0489C67.8025 31.2249 67.8246 31.401 67.8246 31.577H67.7142V31.533Z" fill="#010101"/>
<path d="M77.848 34.6357C76.5013 34.6357 75.7285 33.7775 75.7285 32.5012C75.7285 31.2469 76.7 30.3887 77.9363 30.3887C79.2169 30.3887 80.0559 31.357 80.0559 32.5232C80.0559 33.7775 79.0844 34.6357 77.848 34.6357ZM77.848 30.7188C77.4285 30.7188 76.7662 31.0049 76.7662 32.2592C76.7662 33.3594 77.3182 34.2176 78.0026 34.2176C78.4221 34.2176 79.0844 33.9315 79.0844 32.6773C79.0844 31.9291 78.8636 30.7188 77.848 30.7188Z" fill="#010101"/>
<path d="M83.6105 31.0709C83.6105 30.7408 83.6105 30.6528 83.2131 30.6308V30.4548C83.7209 30.4768 84.2287 30.4768 84.7365 30.4768C85.2443 30.4768 85.7301 30.4768 86.2158 30.4548C86.2379 30.7848 86.2379 31.0929 86.282 31.423H86.1495C85.9729 30.7628 85.443 30.7628 84.9352 30.7628C84.6924 30.7628 84.6041 30.7628 84.6041 30.8729V32.3032H84.9573C85.3327 32.3032 85.6859 32.2592 85.708 31.7751H85.8405C85.8184 31.9951 85.8184 32.2372 85.8184 32.4572C85.8184 32.6773 85.8184 32.9193 85.8405 33.1394H85.708C85.6859 32.6552 85.3327 32.6112 84.9573 32.6112H84.6041V33.9535C84.6041 34.2836 84.6041 34.3716 85.0015 34.3936V34.5697C84.6924 34.5477 84.4054 34.5477 84.1183 34.5477C83.8313 34.5477 83.5222 34.5477 83.2352 34.5697V34.3936C83.6326 34.3716 83.6326 34.2836 83.6326 33.9535V31.0709H83.6105Z" fill="#010101"/>
<path d="M94.9588 30.7848C94.2743 30.7628 94.0094 30.8729 93.8107 31.555H93.6561C93.7003 31.2469 93.7224 30.8949 93.7224 30.4768C94.2964 30.4988 94.8925 30.4988 95.4666 30.4988C96.0406 30.4988 96.5925 30.4988 97.1666 30.4768C97.1224 30.8068 97.1003 31.2249 97.1003 31.555H96.9679C96.8796 30.7848 96.6146 30.7848 95.9302 30.7848V33.9535C95.9302 34.2836 95.9302 34.3716 96.3276 34.3936V34.5697C96.0406 34.5477 95.7315 34.5477 95.4224 34.5477C95.1354 34.5477 94.8484 34.5477 94.5393 34.5697V34.3936C94.9367 34.3716 94.9367 34.2836 94.9367 33.9535V30.7848H94.9588Z" fill="#010101"/>
<path d="M100.699 31.0709C100.699 30.7408 100.699 30.6528 100.302 30.6308V30.4548C100.81 30.4768 101.317 30.4768 101.825 30.4768C102.333 30.4768 102.819 30.4768 103.304 30.4548C103.326 30.7848 103.326 31.0929 103.371 31.423H103.238C103.062 30.7628 102.532 30.7628 102.046 30.7628C101.781 30.7628 101.715 30.7628 101.715 30.8729V32.3032H102.068C102.443 32.3032 102.797 32.2592 102.819 31.7751H102.951C102.929 31.9951 102.929 32.2372 102.929 32.4572C102.929 32.6773 102.929 32.9193 102.951 33.1394H102.819C102.797 32.6552 102.443 32.6112 102.068 32.6112H101.715V34.0856C101.715 34.2396 101.737 34.2396 101.847 34.2396H102.355C102.797 34.2396 103.282 34.1516 103.525 33.4914H103.702C103.614 33.8435 103.525 34.1956 103.459 34.5477C102.929 34.5257 102.399 34.5257 101.869 34.5257C101.339 34.5257 100.832 34.5257 100.324 34.5477V34.3716C100.721 34.3496 100.721 34.2616 100.721 33.9315V31.0709H100.699Z" fill="#010101"/>
<path d="M107.168 31.0489C106.969 30.8068 106.837 30.6308 106.616 30.6308V30.4548C106.837 30.4768 107.036 30.4768 107.256 30.4768C107.477 30.4768 107.676 30.4768 107.897 30.4548L110.038 33.1834H110.06V31.0709C110.06 30.7408 110.06 30.6528 109.663 30.6308V30.4548C109.862 30.4768 110.06 30.4768 110.237 30.4768C110.436 30.4768 110.612 30.4768 110.811 30.4548V30.6308C110.414 30.6528 110.414 30.7408 110.414 31.0709V34.6357H110.038L107.543 31.467H107.521V33.9535C107.521 34.2836 107.521 34.3716 107.919 34.3936V34.5697C107.72 34.5477 107.543 34.5477 107.345 34.5477C107.146 34.5477 106.947 34.5477 106.771 34.5697V34.3936C107.168 34.3716 107.168 34.2836 107.168 33.9535V31.0489Z" fill="#010101"/>
<path d="M114.277 31.0489C114.079 30.8068 113.946 30.6308 113.725 30.6308V30.4548C113.946 30.4768 114.145 30.4768 114.366 30.4768C114.586 30.4768 114.785 30.4768 115.006 30.4548L117.147 33.1834H117.17V31.0709C117.17 30.7408 117.17 30.6528 116.772 30.6308V30.4548C116.971 30.4768 117.17 30.4768 117.346 30.4768C117.545 30.4768 117.722 30.4768 117.92 30.4548V30.6308C117.523 30.6528 117.523 30.7408 117.523 31.0709V34.6357H117.147L114.653 31.467H114.631V33.9535C114.631 34.2836 114.631 34.3716 115.028 34.3936V34.5697C114.829 34.5477 114.653 34.5477 114.454 34.5477C114.255 34.5477 114.057 34.5477 113.88 34.5697V34.3936C114.277 34.3716 114.277 34.2836 114.277 33.9535V31.0489Z" fill="#010101"/>
<path d="M121.386 31.0709C121.386 30.7408 121.386 30.6528 120.989 30.6308V30.4548C121.497 30.4768 122.005 30.4768 122.512 30.4768C123.02 30.4768 123.506 30.4768 123.992 30.4548C124.014 30.7848 124.014 31.0929 124.058 31.423H123.925C123.749 30.7628 123.219 30.7628 122.733 30.7628C122.468 30.7628 122.402 30.7628 122.402 30.8729V32.3032H122.755C123.131 32.3032 123.484 32.2592 123.506 31.7751H123.638C123.616 31.9951 123.616 32.2372 123.616 32.4572C123.616 32.6773 123.616 32.9193 123.638 33.1394H123.506C123.484 32.6552 123.131 32.6112 122.755 32.6112H122.402V34.0856C122.402 34.2396 122.424 34.2396 122.534 34.2396H123.042C123.484 34.2396 123.97 34.1516 124.212 33.4914H124.389C124.301 33.8435 124.212 34.1956 124.146 34.5477C123.616 34.5257 123.086 34.5257 122.557 34.5257C122.027 34.5257 121.519 34.5257 121.011 34.5477V34.3716C121.409 34.3496 121.409 34.2616 121.409 33.9315V31.0709H121.386Z" fill="#010101"/>
<path d="M130.019 31.533C129.865 31.0709 129.555 30.7188 129.026 30.7188C128.716 30.7188 128.429 30.9169 128.429 31.2249C128.429 32.0171 130.483 31.9731 130.483 33.3814C130.483 34.2396 129.776 34.6577 128.981 34.6577C128.518 34.6577 128.12 34.4156 127.657 34.4156C127.657 34.2176 127.679 34.0416 127.679 33.8435C127.679 33.6235 127.657 33.3814 127.657 33.1614H127.811C128.032 33.7995 128.363 34.2836 129.004 34.2836C129.357 34.2836 129.71 34.1076 129.71 33.7115C129.71 32.7873 127.657 32.8973 127.657 31.511C127.657 30.8068 128.297 30.4328 128.937 30.4328C129.379 30.4328 129.533 30.5428 129.82 30.5428C129.953 30.5428 130.041 30.5208 130.13 30.5208C130.13 30.6968 130.107 30.8728 130.107 31.0489C130.107 31.2249 130.13 31.401 130.13 31.577H130.019V31.533Z" fill="#010101"/>
<path d="M136.157 31.533C136.002 31.0709 135.693 30.7188 135.163 30.7188C134.854 30.7188 134.567 30.9169 134.567 31.2249C134.567 32.0171 136.62 31.9731 136.62 33.3814C136.62 34.2396 135.914 34.6577 135.119 34.6577C134.655 34.6577 134.258 34.4156 133.794 34.4156C133.794 34.2176 133.817 34.0416 133.817 33.8435C133.817 33.6235 133.794 33.3814 133.794 33.1614H133.949C134.17 33.7995 134.501 34.2836 135.141 34.2836C135.494 34.2836 135.848 34.1076 135.848 33.7115C135.848 32.7873 133.794 32.8973 133.794 31.511C133.794 30.8068 134.435 30.4328 135.075 30.4328C135.539 30.4328 135.671 30.5428 135.958 30.5428C136.091 30.5428 136.179 30.5208 136.267 30.5208C136.267 30.6968 136.245 30.8728 136.245 31.0489C136.245 31.2249 136.267 31.401 136.267 31.577H136.157V31.533Z" fill="#010101"/>
<path d="M140.175 31.0709C140.175 30.7408 140.175 30.6528 139.778 30.6308V30.4548C140.286 30.4768 140.793 30.4768 141.301 30.4768C141.809 30.4768 142.295 30.4768 142.78 30.4548C142.802 30.7848 142.802 31.0929 142.847 31.423H142.714C142.537 30.7628 142.008 30.7628 141.522 30.7628C141.257 30.7628 141.191 30.7628 141.191 30.8729V32.3032H141.544C141.919 32.3032 142.273 32.2592 142.295 31.7751H142.427C142.405 31.9951 142.405 32.2372 142.405 32.4572C142.405 32.6773 142.405 32.9193 142.427 33.1394H142.295C142.273 32.6552 141.919 32.6112 141.544 32.6112H141.191V34.0856C141.191 34.2396 141.213 34.2396 141.323 34.2396H141.831C142.273 34.2396 142.758 34.1516 143.001 33.4914H143.178C143.089 33.8435 143.001 34.1956 142.935 34.5477C142.405 34.5257 141.875 34.5257 141.345 34.5257C140.815 34.5257 140.308 34.5257 139.8 34.5477V34.3716C140.197 34.3496 140.197 34.2616 140.197 33.9315V31.0709H140.175Z" fill="#010101"/>
<path d="M146.644 31.0709C146.644 30.7408 146.644 30.6528 146.247 30.6308V30.4548C146.755 30.4768 147.262 30.4768 147.77 30.4768C148.278 30.4768 148.764 30.4768 149.249 30.4548C149.271 30.7848 149.271 31.0929 149.316 31.423H149.183C149.006 30.7628 148.477 30.7628 147.991 30.7628C147.726 30.7628 147.66 30.7628 147.66 30.8729V32.3032H148.013C148.388 32.3032 148.742 32.2592 148.764 31.7751H148.896C148.874 31.9951 148.874 32.2372 148.874 32.4572C148.874 32.6773 148.874 32.9193 148.896 33.1394H148.764C148.742 32.6552 148.388 32.6112 148.013 32.6112H147.66V34.0856C147.66 34.2396 147.682 34.2396 147.792 34.2396H148.3C148.742 34.2396 149.227 34.1516 149.47 33.4914H149.647C149.558 33.8435 149.47 34.1956 149.404 34.5477C148.874 34.5257 148.344 34.5257 147.814 34.5257C147.284 34.5257 146.777 34.5257 146.269 34.5477V34.3716C146.666 34.3496 146.666 34.2616 146.666 33.9315V31.0709H146.644Z" fill="#010101"/>
</svg>
